/* XPM */
static char *_7ed19b691de43d68dce9b219c757e4e[] = {
/* columns rows colors chars-per-pixel */
"64 64 183 2 ",
"   c #741200",
".  c #741300",
"X  c #751300",
"o  c #751400",
"O  c #751401",
"+  c #751501",
"@  c #761400",
"#  c #761501",
"$  c #761601",
"%  c #761502",
"&  c #761602",
"*  c #771602",
"=  c #771702",
"-  c #771603",
";  c #771703",
":  c #7B1302",
">  c #7B1303",
",  c #7C1101",
"<  c #7C1102",
"1  c #7D1202",
"2  c #7D1203",
"3  c #7E1303",
"4  c #7A1704",
"5  c #7B1605",
"6  c #7A1705",
"7  c #771804",
"8  c #781804",
"9  c #791804",
"0  c #781904",
"q  c #781805",
"w  c #781905",
"e  c #791905",
"r  c #7B1805",
"t  c #781806",
"y  c #791906",
"u  c #791A06",
"i  c #791B06",
"p  c #7A1B06",
"a  c #7A1A07",
"s  c #7A1B07",
"d  c #7A1C06",
"f  c #7A1C07",
"g  c #7A1B08",
"h  c #7A1C08",
"j  c #7B1C08",
"k  c #7B1D08",
"l  c #7A1C09",
"z  c #7B1C09",
"x  c #7B1D09",
"c  c #7B1E09",
"v  c #7B1D0A",
"b  c #7B1E0A",
"n  c #7C1D09",
"m  c #7C1E09",
"M  c #7C1E0A",
"N  c #7C1E0B",
"B  c #7C1F0B",
"V  c #7D1F0B",
"C  c #7C1F0C",
"Z  c #7D1F0C",
"A  c #7C200C",
"S  c #7D200C",
"D  c #7E210E",
"F  c #7F2410",
"G  c #337E22",
"H  c #871F12",
"J  c #842312",
"K  c #862212",
"L  c #862313",
"P  c #802410",
"I  c #812410",
"U  c #802411",
"Y  c #812411",
"T  c #802511",
"R  c #812511",
"E  c #822511",
"W  c #802412",
"Q  c #802513",
"!  c #802612",
"~  c #802613",
"^  c #812613",
"/  c #812614",
"(  c #812714",
")  c #882012",
"_  c #892113",
"`  c #8B2315",
"'  c #822814",
"]  c #842B18",
"[  c #842B1A",
"{  c #852D1B",
"}  c #872F1C",
"|  c #148214",
" . c #158315",
".. c #168416",
"X. c #178417",
"o. c #188518",
"O. c #198619",
"+. c #1B871B",
"@. c #1C871C",
"#. c #1B881B",
"$. c #1C881C",
"%. c #1D881D",
"&. c #1D891D",
"*. c #1E881E",
"=. c #1E891E",
"-. c #1F891F",
";. c #1F8B1F",
":. c #1A8F20",
">. c #1D9324",
",. c #1F9427",
"<. c #208A20",
"1. c #218A21",
"2. c #238B23",
"3. c #228C22",
"4. c #238C23",
"5. c #248C24",
"6. c #248D24",
"7. c #258D25",
"8. c #268E26",
"9. c #278E27",
"0. c #278F27",
"q. c #2E8B28",
"w. c #288E28",
"e. c #288F28",
"r. c #298F29",
"t. c #2A8F2A",
"y. c #338628",
"u. c #239127",
"i. c #229226",
"p. c #23952B",
"a. c #23962A",
"s. c #22972A",
"d. c #25972C",
"f. c #26962D",
"g. c #299029",
"h. c #29902A",
"j. c #2A902A",
"k. c #2A912A",
"l. c #2B912A",
"z. c #2B902B",
"x. c #2B912B",
"c. c #2C902C",
"v. c #2C912C",
"b. c #2C922C",
"n. c #2D922D",
"m. c #2F912F",
"M. c #2E922E",
"N. c #2E932E",
"B. c #29952D",
"V. c #24982C",
"C. c #27982E",
"Z. c #3D8B32",
"A. c #2D9932",
"S. c #2F9833",
"D. c #309230",
"F. c #309330",
"G. c #319331",
"H. c #309430",
"J. c #319431",
"K. c #329431",
"L. c #329432",
"P. c #329532",
"I. c #339533",
"U. c #349534",
"Y. c #359535",
"T. c #349634",
"R. c #359635",
"E. c #369736",
"W. c #309934",
"Q. c #329A36",
"!. c #389738",
"~. c #369D3A",
"^. c #389838",
"/. c #3B9A3B",
"(. c #3C9A3C",
"). c #399E3E",
"_. c #3F9C3F",
"`. c #438934",
"'. c #448B36",
"]. c #429D42",
"[. c #46A046",
"{. c #48A148",
"}. c None",
/* pixels */
"}.}.}.}.}.}.}.}.}.}.}.}.}.}.}.}.}.}.}.}.}.}.}.}.}.}.}.}.}.}.}.}.}.}.}.}.}.}.}.}.}.}.}.}.}.}.}.}.}.}.}.}.}.}.}.}.}.}.}.}.}.}.}.}.",
"}.}.}.}.}.}.}.}.}.}.}.}.}.}.}.}.}.}.}.}.}.}.}.}.}.}.}.}.}.}.}.}.}.}.}.}.}.}.}.}.}.}.}.}.}.}.}.}.}.}.}.}.}.}.}.}.}.}.}.}.}.}.}.}.",
"}.}.6.+.@.-.@.@.-.+.@.@.@.-.-.+.^.}.}.}.}.}.}.}.}.8 v 8 v v l l v v f v v v v f v v v v v v f v v v v f v v f v v v f v 8 T }.}.",
"}.}.-. . . .+. . .+. .+... . .| n.}.}.}.}.}.}.}.}.# # ; # # # ; # # # # # # # # = # # # # # # # # # # # # # # # # # # # # A }.}.",
"}.}.<...+... .+.+. .+. .+.+...+.-.}.}.}.}.}.}.}.}.X ; ; ; ; ; ; # 7 7 8 = = 7 # 8 7 # # # 7 7 7 = = # 8 7 # 8 7 ; ; ; ; # Z }.}.",
"}.}.<...+...+. . .+. .+.......| D.}.}.}.}.}.}.}.}.X ; ; ; ; ; ; 8 8 # # = 7 7 7 # 7 8 7 8 7 # # = 7 7 8 7 8 # 7 ; ; ; ; 7 A }.}.",
"}.}.<.....+. .+.+. .+. .+. .+. .@.}.}.}.}.}.}.}.}.X ; ; ; ; ; ; 7 # 8 7 # 7 # 8 # 8 7 8 7 # 7 7 7 7 # # # # 8 8 ; ; ; ; # A }.}.",
"}.}.<...+. .+. . .+. .+. .+. .+.-.}.}.}.}.}.}.}.}.X ; ; ; ; ; ; 7 8 # 7 8 8 # 7 7 8 # # 7 8 # 7 # 7 7 7 8 7 7 # ; ; 7 7 # Z }.}.",
"}.}.<...+. .+. .+. .....+.+...+.#.}.}.}.}.}.}.}.}.X 7 8 7 8 8 # # 7 7 # = 7 = 7 # 7 7 # = = = 7 7 = = = 7 7 = = ; ; = 7 # A }.}.",
"}.}.<... .+. .+. .+.+... . . . .-.}.}.}.}.}.}.}.}.# # # # # 7 7 8 # ; # # # # ; ; # # ; = # # = # 7 # # # # = # # # # = # A }.}.",
"}.}.<...+. .+. .+.+.+.-.-.-.-.@.}.}.}.}.}.}.}.}.}.X 8 7 8 7 # 8 # v A v V v V V v V v A v v V v v V V v v A v v v v v v v T }.}.",
"}.}.<. . .+. .+. . .@.}.}.}.}.}.}.}.}.}.}.}.}.}.}.X # 7 8 # 7 8 # F }.}.}.}.}.}.}.}.}.}.}.}.}.}.}.}.}.}.}.}.}.}.}.}.}.}.}.}.}.}.",
"}.}.<...+. .+. .+...-.}.}.}.}.}.}.}.}.}.}.}.}.}.}.X ; ; 8 7 # # 8 8 }.}.}.}.}.}.}.}.}.}.}.}.}.}.}.}.}.}.}.}.}.}.}.}.}.}.}.}.}.}.",
"}.}.<... .+. .+.....-.}.}.}.}.}.}.}.}.}.}.}.}.}.}.X ; ; # 7 8 7 7 f }.}.}.}.}.}.}.}.}.}.}.}.}.}.}.}.}.}.}.}.}.}.}.}.}.}.}.}.}.}.",
"}.}.<...+. .+. .....-.}.}.}.}.}.}.}.}.}.}.}.}.}.}.X ; ; # 8 7 8 = f }.}.}.}.}.}.}.}.}.}.}.}.}.}.}.}.}.}.}.}.}.}.}.}.}.}.}.}.}.}.",
"}.}.<... .+. .+. .+.-.}.}.}.}.}.}.}.}.}.}.}.}.}.}.# ; ; 7 8 # # 7 8 }.}.}.}.}.}.}.}.}.}.}.}.}.}.}.}.}.}.}.}.}.}.}.}.}.}.}.}.}.}.",
"}.}.}.-.-.-.-.-.-.-.}.}.}.}.}.}.}.}.}.}.}.}.}.}.}.# # 7 7 # 8 7 8 f }.}.}.}.}.}.}.}.}.}.}.}.}.}.}.}.}.}.}.}.}.}.}.}.}.}.}.}.}.}.",
"}.}.}.}.}.}.}.}.}.}.}.}.}.}.}.}.}.}.}.}.}.}.}.}.}.# 7 # 7 8 # 7 ; 8 }.}.}.}.}.}.}.}.}.}.}.}.}.}.}.}.}.}.}.}.}.}.}.}.}.}.}.}.}.}.",
"}.}.}.}.}.}.}.}.}.}.}.}.}.}.}.}.}.}.}.}.}.}.}.}.}.# 7 8 # # 8 8 ; f }.}.}.}.}.}.}.}.}.}.}.}.}.}.}.}.}.}.}.}.}.}.}.}.}.}.}.}.}.}.",
"}.}.}.}.}.}.}.}.}.}.}.}.}.}.}.}.}.}.}.}.}.}.}.}.}.# # # 8 7 7 # - f }.}.}.}.}.}.}.}.8 8 f 8 v 8 v 8 f 8 v 8 8 v 8 f 8 v 8 A }.}.",
"}.}.}.}.}.}.}.}.}.}.}.}.}.}.}.}.}.}.}.}.}.}.}.}.}.# # 7 7 8 8 # ; f }.}.}.}.}.}.}.}.# # # # = # # # # # # 7 # # = # # # # A }.}.",
"}.}.}.}.}.}.}.}.}.}.}.}.}.}.}.}.}.}.}.}.}.}.}.}.}.X # 7 # # 7 7 ; f }.}.}.}.}.}.}.}.# 7 ; ; = 7 = 7 7 8 # 7 8 # 7 ; 8 ; ; A }.}.",
"}.}.}.}.}.}.}.}.}.}.}.}.}.}.}.}.}.}.}.}.}.}.}.}.}.# 8 # 8 7 # 8 ; f }.}.}.}.}.}.}.}.# 7 ; ; ; ; 7 7 # # 7 8 7 7 = 7 ; ; - A }.}.",
"}.}.}.}.}.}.}.}.}.}.}.}.}.}.}.}.}.}.}.}.}.}.}.}.}.# 7 7 8 # 7 8 ; f }.}.}.}.}.}.}.}.# 7 ; ; ; ; # 7 8 7 7 # # 8 8 # ; - - A }.}.",
"}.}.}.}.}.}.}.}.}.}.}.}.}.}.}.}.}.}.}.}.}.}.}.}.} # 7 7 8 7 # # ; f }.}.}.}.}.}.}.}.# 7 7 # - - 8 # 7 = ; ; ; ; 7 # 8 7 # Z }.}.",
"}.}.v X # # # # # # # # # # # # # # # # # # # # # # 8 # # 7 8 7 ; f }.}.}.}.}.}.}.}.# # 7 8 - - 7 7 = # ; ; ; ; 7 8 # 7 # A }.}.",
"}.}.Z # 8 7 # 7 # 7 # 7 8 7 # 7 # 7 # 7 8 7 # 7 7 8 7 # # 8 7 8 ; f }.}.}.}.}.}.}.}.  # # # X X # X # # # ; ; ; # # 8 8 # A }.}.",
"}.}.Z # # 7 8 8 8 7 # 7 # 7 8 8 8 7 # 7 # 7 8 8 # # 7 8 7 8 # # ; f }.}.}.}.}.}.}.}.H ` ` ) L L L J T ' I ; ; ; 8 7 7 # # A }.}.",
"}.}.Z # # 7 7 # 7 # 8 7 # 8 7 # 7 # 8 7 # 8 7 # 8 7 # 8 7 # 8 7 ; f }.}.}.}.}.}.}.}.}.}.}.}.}.}.}.}.}.}.}.8 - ; ; ; ; ; ; A }.}.",
"}.}.Z # # 7 8 # 7 8 # 7 # 7 8 # 7 8 # 7 # 7 8 # 8 # 7 8 7 8 # 7 ; f }.}.}.}.}.}.}.:.,.f.d.d.C.B.}.}.}.}.}.8 - ; ; ; ; ; # A }.}.",
"}.}.Z # 8 8 7 7 # # 8 8 8 8 7 7 # # 8 8 8 8 7 7 7 7 # # # # 8 8 ; f }.}.}.}.}.6.}.}.}.}.}.}.}.}.h.h.}.}.}.8 - ; ; ; ; ; - A }.}.",
"}.}.Z # 7 # # 8 8 7 7 # 7 # # 8 8 7 7 # 7 # # 8 # 8 8 7 8 7 7 # ; f }.}.}.}.h.}.}.n.w.6.w.6.n.h.}.}.K.}.}.1 ; ; ; ; ; ; - A }.}.",
"}.}.Z # 7 8 8 # 7 8 - # # ; # # # # - - - - - - - - - - # - # # # r }.}.}.N.}.h.^.}.}.}.}.}.}.}.n.e.}.}.}.3 ; ; ; ; ; ; = A }.}.",
"}.}.Z # # # 7 7 # = 8 T T T T T T J T T P T P T P P P T T T T T T }.}.}.l.}._.}.}.6.n.^./.h.h.l.}.}.}.}.}.8 ; ; ; ; ; ; # A }.}.",
"}.}.Z # 8 7 # 8 8 # V }.}.}.}.}.}.}.}.}.}.}.}.}.}.}.}.}.}.}.}.}.}.}.}.}.K.}.R.}.n.}.}.}.}.}.}.}.}.}.}.}.}.8 - ; ; ; ; ; - A }.}.",
"}.}.A # 8 # 7 8 7 # V }.}.}.}.}.}.}.}.}.}.}.}.}.}.}.}.}.}.}.}.}.}.}.}.}.R.}.}.}.}.}.<.}.}.6.h.}.}.}.}.}.}.; - ; ; ; ; ; - A }.}.",
"}.}.Z # 8 7 # # 7 # v }.}.}.}.}.}.}.}.}.}.}.}.}.}.}.}.}.}.}.}.}.}.}.}.}.}.<.}.K.}.(.}.}.}.}.}.}.}.}.}.}.}.8 - ; ; ; ; ; - A }.}.",
"}.}.Z # # 7 8 7 7 # v }.}.}.}.}.}.}.}.}.}.}.}.}.}.}.}.}.}.}.}.}.}.}.}.}.E.}.}.}.}.}.w.-.-.w.}.}.}.}.}.}.}.8 - ; ; ; ; ; # A }.}.",
"}.}.C # # 8 7 = = = v }.}.}.}.}.}.}.}.}.}.}.}.}.}.}.}.}.}.}.}.}.}.}.}.}.K.}.h.}.6.}.}.}.}.}.}.n.I.}.}.}.}.8 8 ; ; ; - ; # P }.}.",
"}.}.C # 7 7 # 7 = # v }.}.}.}.}.}.}.}.}.}.}.}.}.}.}.}.}.}.}.}.}.}.}.}.}.N.}.[.}.}.n.w.!.K.h.h.}.}.+.}.}.}.8 - 8 ; ; - - # A }.}.",
"}.}.C # # # 8 7 7 # v }.}.}.}.}.}.}.}.}.}.}.}.}.}.}.}.}.}.}.}.}.}.}.}.}.}.n.}.K.R.}.}.}.}.}.}.6.}.}.).}.}.; - ; ; ; ; ; # A }.}.",
"}.}.C # 7 7 8 # 7 # v }.}.}.}.}.}.}.}.}.}.}.}.}.}.}.}.}.}.}.}.}.}.}.}.}.}.}.h.}.}.h.K.K.D.n.}.}.N.}.S.}.}.; - ; ; ; ; ; # A }.}.",
"}.}.Z # 7 8 7 # = = v }.}.}.}.}.}.}.}.f # # # # # # # f }.}.}.}.}.}.}.}.}.}.}.6.n.}.}.}.}.}.U.}.}.(.}.'.}.8 ; ; ; ; ; ; # P }.}.",
"}.}.C # # # 7 8 = # v }.}.}.}.}.}.}.}.v # 7 8 # 7 # # v }.}.}.}.}.}.}.}.}.}.}.}.}.6.h.6.w.^.}.K.}.K.}.y.}.r ; ; ; ; ; ; # A }.}.",
"}.}.v # 8 8 7 # 7 # v }.}.}.}.}.}.}.}.l # 7 ; ; # 8 # v }.}.}.}.}.}.}.}.}.}.}.}.}.}.}.}.}.R.}.n.}.<.}.V.}.3 ; ; ; ; ; ; # A }.}.",
"}.}.A # 7 # 7 8 7 # v }.}.}.}.}.}.}.}.v # 7 ; ; 7 8 ; v }.}.}.}.}.}.}.}.}.}.}.}.n.6.}.}.7.R.}.D.}.m.}.W.}.3 ; ; ; ; ; ; # A }.}.",
"}.}.Z # # 7 # 8 = # v }.}.}.}.}.}.}.}.v # ; ; ; 7 # # v }.}.}.}.}.}.}.}.}.}.}.}.}.}.}.}.}.}.{.].}.R.}.'.}.8 ; ; ; ; ; ; - A }.}.",
"}.}.A # 8 8 # 7 = # v }.}.}.}.}.}.}.}.v # ; ; ; = 7 # v }.}.}.}.}.}.}.}.}.}.}.}.l.n.6.@.6.w.R.}.D.}.W.}.}.; ; ; ; ; ; - - Z }.}.",
"}.}.A # ; ; ; ; ; # v }.}.}.}.}.}.}.}.l # # ; ; ; ; # v }.}.}.}.}.}.}.}.}.}.6.}.}.}.}.}.}.}.}.n.}.}.).}.}.8 8 ; ; ; ; ; # Z }.}.",
"}.}.V # ; ; ; ; 7 # v }.}.}.}.}.}.}.}.V ; ; ; ; ; ; # v }.}.}.}.}.}.}.}.h.}.}.}.6.e.1.:.<.h.n.}.}.<.}.}.}.8 ; ; ; ; ; ; ; A }.}.",
"}.}.v # ; ; ; ; 7 # v }.}.}.}.}.}.}.}.z # ; ; ; 7 = # v }.}.}.}.}.}.}.}.}.>.i.}.}.}.}.}.}.}.}.u.A.}.}.}.}.8 # ; ; ; ; ; # Z }.}.",
"}.}.A # ; ; ; ; ; # v }.}.}.}.}.}.}.}.z ; ; ; ; = = # v }.}.}.}.}.}.}.}.}.}.}.}.G 5.V.f.s.q.Z.}.}.}.}.}.}.8 ; ; ; ; ; ; # A }.}.",
"}.}.V # # 7 ; ; = = v }.}.}.}.}.}.}.}.l ; ; ; ; 7 = ; A }.}.}.}.}.}.}.}.}.}.}.}.}.}.}.}.}.}.}.}.}.}.}.}.}.8 # 8 ; ; ; ; # A }.}.",
"}.}.A # ; ; ; ; = # v }.}.}.}.}.}.}.}.v # ; ; ; # 7 # 8 8 8 8 8 8 8 8 8 8 8 8 8 8 1 1 1 1 r 8 8 8 8 8 8 8 8 7 8 ; ; ; ; ; A }.}.",
"}.}.V # ; ; ; ; = # v }.}.}.}.}.}.}.}.l ; ; ; ; 7 8 7 7 8 ; ; ; ; ; ; ; ; ; ; ; ; ; # 7 # - # # - # = # 7 7 # # ; ; ; ; - A }.}.",
"}.}.v # ; ; ; ; 7 = v }.}.}.}.}.}.}.}.l # ; ; ; 7 # # 8 ; ; ; ; ; ; ; ; ; ; ; ; ; ; ; ; 7 7 8 8 ; ; = 7 7 = 8 7 ; ; - - - A }.}.",
"}.}.Z # 7 8 8 # 7 # v }.}.}.}.}.}.}.}.l ; ; ; ; ; ; ; ; ; ; ; ; ; ; ; ; ; ; ; ; # 8 7 7 # 8 7 # ; ; ; ; ; ; ; ; ; ; ; ; # A }.}.",
"}.}.v # # # 7 7 7 # v }.}.}.}.}.}.}.}.v # ; ; ; ; ; ; ; ; ; ; ; ; ; ; ; ; ; ; ; 7 8 # 8 # 7 8 # ; ; ; ; ; ; ; ; ; ; ; ; # A }.}.",
"}.}.v # 8 7 # 7 7 7 v }.}.}.}.}.}.}.}.v ; ; ; ; ; ; ; ; ; ; ; ; ; ; ; ; ; ; ; ; 7 # = 7 8 8 7 7 ; ; ; ; ; ; ; ; ; ; ; ; - A }.}.",
"}.}.Z # 8 # 7 # # # v }.}.}.}.}.}.}.}.l # ; ; ; ; ; ; ; ; ; ; ; ; ; ; ; ; ; ; ; 7 # 7 # 7 # # 8 ; ; ; ; ; ; ; ; ; ; ; ; - A }.}.",
"}.}.v   # # X # # # 8 }.}.}.}.}.}.}.}.t   # # # X #   # # X # # # # # # # # # X # # X # # # # # # X #   # # X # # # X # X l }.}.",
"}.}.} F / / T / F T { }.}.}.}.}.}.}.}.} F ' F ' / / / F / / T / T / T T T / / T / / T / F / T / / / T / T / F / / T / / T } }.}.",
"}.}.}.}.}.}.}.}.}.}.}.}.}.}.}.}.}.}.}.}.}.}.}.}.}.}.}.}.}.}.}.}.}.}.}.}.}.}.}.}.}.}.}.}.}.}.}.}.}.}.}.}.}.}.}.}.}.}.}.}.}.}.}.}.",
"}.}.}.}.}.}.}.}.}.}.}.}.}.}.}.}.}.}.}.}.}.}.}.}.}.}.}.}.}.}.}.}.}.}.}.}.}.}.}.}.}.}.}.}.}.}.}.}.}.}.}.}.}.}.}.}.}.}.}.}.}.}.}.}."
};
