/* XPM */
static char *adfeb24545934330f7f92a4377564bbe[] = {
/* columns rows colors chars-per-pixel */
"128 128 39 1 ",
"  c #720F00",
". c #771703",
"X c #771804",
"o c #791905",
"O c #7C1E0A",
"+ c #7D210D",
"@ c #7F2310",
"# c #0D7F0D",
"$ c #812612",
"% c #832814",
"& c #872E1B",
"* c #882F1B",
"= c #87301D",
"- c #88311E",
"; c #8A3321",
": c #8E3A27",
"> c #8F3C29",
", c #903D2B",
"< c #0F800F",
"1 c #158315",
"2 c #168718",
"3 c #188518",
"4 c #1D891D",
"5 c #1E8C20",
"6 c #238C23",
"7 c #298F29",
"8 c #249127",
"9 c #269129",
"0 c #2C912C",
"q c #339533",
"w c #369837",
"e c #399739",
"r c #369A38",
"t c #3C9B3C",
"y c #3BA040",
"u c #419D41",
"i c #47A147",
"p c #4CA34C",
"a c None",
/* pixels */
"aaaaaaaaaaaaaaaaaaaaaaaaaaaaaaaaaaaaaaaaaaaaaaaaaaaaaaaaaaaaaaaaaaaaaaaaaaaaaaaaaaaaaaaaaaaaaaaaaaaaaaaaaaaaaaaaaaaaaaaaaaaaaaaa",
"aaaaaaaaaaaaaaaaaaaaaaaaaaaaaaaaaaaaaaaaaaaaaaaaaaaaaaaaaaaaaaaaaaaaaaaaaaaaaaaaaaaaaaaaaaaaaaaaaaaaaaaaaaaaaaaaaaaaaaaaaaaaaaaa",
"aaaaaaaaaaaaaaaaaaaaaaaaaaaaaaaaaaaaaaaaaaaaaaaaaaaaaaaaaaaaaaaaaaaaaaaaaaaaaaaaaaaaaaaaaaaaaaaaaaaaaaaaaaaaaaaaaaaaaaaaaaaaaaaa",
"aaaaaaaaaaaaaaaaaaaaaaaaaaaaaaaaaaaaaaaaaaaaaaaaaaaaaaaaaaaaaaaaaaaaaaaaaaaaaaaaaaaaaaaaaaaaaaaaaaaaaaaaaaaaaaaaaaaaaaaaaaaaaaaa",
"aaaaaqqqqqqqqqqqqqqqqqqqqqqqqqqqqaaaaaaaaaaaaaaaaa&%&&&&&&&&&&&&**&&&&&&&&&&&&&&&&&&&***-&&&&&&&&&&&&&&&&&&&&&&&&&&&&&&&&&&:aaaa",
"aaaat<3<1111111111111111<13<113<<paaaaaaaaaaaaaaaa ......... ....... .... ......... ........... .. ...................... .+aaaa",
"aaaat<333313333333333333333333331eaaaaaaaaaaaaaaaa.............o...........................................................$aaaa",
"aaaat1333333333333333333333333331uaaaaaaaaaaaaaaaa ........................................................................$aaaa",
"aaaat13333333333333333133333333117aaaaaaaaaaaaaaaa.........o.o.............X..o..............o.........o........o......o...@aaaa",
"aaaat33333333133333333333333333333aaaaaaaaaaaaaaaa.................oo............o...o.o..................X...o............$aaaa",
"aaaat<3333333333333333333333333330aaaaaaaaaaaaaaaa .....o.....o..o....o..................o.o........o......................@aaaa",
"aaaat333333133333113333333333333<paaaaaaaaaaaaaaaa..........................o............................o...o.....o...X...$aaaa",
"aaaau33333331333333331333313133336aaaaaaaaaaaaaaaa..........o......X................o..........o.X...o....o....X...o.X.....$aaaa",
"aaaat13333333333333333333333333334aaaaaaaaaaaaaaaa .................o......o.......o.......o.......X.......................@aaaa",
"aaaat<3333333331333333313333333334aaaaaaaaaaaaaaaa.......o.....................o.......................o.....o.............@aaaa",
"aaaat33313333333331333333333331334aaaaaaaaaaaaaaaa............o....o.....o.......o.....o....o....X......o.......o..........$aaaa",
"aaaau33333313333333333333333333334aaaaaaaaaaaaaaaa....................X.............o.......o.....o.....o...X..X....X..o...@aaaa",
"aaaau#3333333133333333333333313334aaaaaaaaaaaaaaaa...o....o.....o..o.........o.o...........................................$aaaa",
"aaaat13333333333331333333133133334aaaaaaaaaaaaaaaa..........o.o........o................o..................................@aaaa",
"aaaau#3333333333333333333333333334aaaaaaaaaaaaaaaa...............................o.....o.......oo....o.....o.......oX......$aaaa",
"aaaau#433333313333333333333333331qaaaaaaaaaaaaaaaa.....o...........................o.......................................$aaaa",
"aaaat1333133333333333133334334331uaaaaaaaaaaaaaaaa......o...........oooooooo.oooooooooooooooooooooo.ooooooooooooooooooooo..$aaaa",
"aaaau133333333333333330aaaaaaaaaaaaaaaaaaaaaaaaaaa .o........o...X.:aaaaaaaaaaaaaaaaaaaaaaaaaaaaaaaaaaaaaaaaaaaaaaaaaaaaaaaaaaaa",
"aaaau#3313333333133333aaaaaaaaaaaaaaaaaaaaaaaaaaaa.......o.........aaaaaaaaaaaaaaaaaaaaaaaaaaaaaaaaaaaaaaaaaaaaaaaaaaaaaaaaaaaaa",
"aaaau13333333113333333aaaaaaaaaaaaaaaaaaaaaaaaaaaa.................aaaaaaaaaaaaaaaaaaaaaaaaaaaaaaaaaaaaaaaaaaaaaaaaaaaaaaaaaaaaa",
"aaaau33333333333333134aaaaaaaaaaaaaaaaaaaaaaaaaaaa ......o...oo..X.aaaaaaaaaaaaaaaaaaaaaaaaaaaaaaaaaaaaaaaaaaaaaaaaaaaaaaaaaaaaa",
"aaaat13333333333333333aaaaaaaaaaaaaaaaaaaaaaaaaaaa.................aaaaaaaaaaaaaaaaaaaaaaaaaaaaaaaaaaaaaaaaaaaaaaaaaaaaaaaaaaaaa",
"aaaau13331333333333334aaaaaaaaaaaaaaaaaaaaaaaaaaaa................Xaaaaaaaaaaaaaaaaaaaaaaaaaaaaaaaaaaaaaaaaaaaaaaaaaaaaaaaaaaaaa",
"aaaau13333333333333333aaaaaaaaaaaaaaaaaaaaaaaaaaaa .............o.oaaaaaaaaaaaaaaaaaaaaaaaaaaaaaaaaaaaaaaaaaaaaaaaaaaaaaaaaaaaaa",
"aaaat33331331333133333aaaaaaaaaaaaaaaaaaaaaaaaaaaa........o..o.....aaaaaaaaaaaaaaaaaaaaaaaaaaaaaaaaaaaaaaaaaaaaaaaaaaaaaaaaaaaaa",
"aaaat33333333333133333aaaaaaaaaaaaaaaaaaaaaaaaaaaa.................aaaaaaaaaaaaaaaaaaaaaaaaaaaaaaaaaaaaaaaaaaaaaaaaaaaaaaaaaaaaa",
"aaaat<3333333333333334aaaaaaaaaaaaaaaaaaaaaaaaaaaa........o........aaaaaaaaaaaaaaaaaaaaaaaaaaaaaaaaaaaaaaaaaaaaaaaaaaaaaaaaaaaaa",
"aaaau13333333333333333aaaaaaaaaaaaaaaaaaaaaaaaaaaa.................aaaaaaaaaaaaaaaaaaaaaaaaaaaaaaaaaaaaaaaaaaaaaaaaaaaaaaaaaaaaa",
"aaaaa44555555664664646aaaaaaaaaaaaaaaaaaaaaaaaaaaa.............o.X.aaaaaaaaaaaaaaaaaaaaaaaaaaaaaaaaaaaaaaaaaaaaaaaaaaaaaaaaaaaaa",
"aaaaaaaaaaaaaaaaaaaaaaaaaaaaaaaaaaaaaaaaaaaaaaaaaa ................aaaaaaaaaaaaaaaaaaaaaaaaaaaaaaaaaaaaaaaaaaaaaaaaaaaaaaaaaaaaa",
"aaaaaaaaaaaaaaaaaaaaaaaaaaaaaaaaaaaaaaaaaaaaaaaaaa.......o....o..o.aaaaaaaaaaaaaaaaaaaaaaaaaaaaaaaaaaaaaaaaaaaaaaaaaaaaaaaaaaaaa",
"aaaaaaaaaaaaaaaaaaaaaaaaaaaaaaaaaaaaaaaaaaaaaaaaaa........o........aaaaaaaaaaaaaaaaaaaaaaaaaaaaaaaaaaaaaaaaaaaaaaaaaaaaaaaaaaaaa",
"aaaaaaaaaaaaaaaaaaaaaaaaaaaaaaaaaaaaaaaaaaaaaaaaaa.................aaaaaaaaaaaaaaaaaaaaaaaaaaaaaaaaaaaaaaaaaaaaaaaaaaaaaaaaaaaaa",
"aaaaaaaaaaaaaaaaaaaaaaaaaaaaaaaaaaaaaaaaaaaaaaaaaa..o..............aaaaaaaaaaaaaaaaa+%$+@$$%$$$$$%$$$$%%%$$$%$%$%$%$%$$$%%$-aaaa",
"aaaaaaaaaaaaaaaaaaaaaaaaaaaaaaaaaaaaaaaaaaaaaaaaaa......o.....o..o.aaaaaaaaaaaaaaaaa ................... ................. $aaaa",
"aaaaaaaaaaaaaaaaaaaaaaaaaaaaaaaaaaaaaaaaaaaaaaaaaa......o..........aaaaaaaaaaaaaaaaa.....o.....o..............o............@aaaa",
"aaaaaaaaaaaaaaaaaaaaaaaaaaaaaaaaaaaaaaaaaaaaaaaaaa...........o.....aaaaaaaaaaaaaaaaa..................o...............o....$aaaa",
"aaaaaaaaaaaaaaaaaaaaaaaaaaaaaaaaaaaaaaaaaaaaaaaaaa ..............o.aaaaaaaaaaaaaaaaa........o.............o...o.o.o........@aaaa",
"aaaaaaaaaaaaaaaaaaaaaaaaaaaaaaaaaaaaaaaaaaaaaaaaaa........o........aaaaaaaaaaaaaaaaa .....o...........o....................@aaaa",
"aaaaaaaaaaaaaaaaaaaaaaaaaaaaaaaaaaaaaaaaaaaaaaaaaa...o...X.....o...aaaaaaaaaaaaaaaaa....o.........o........................$aaaa",
"aaaaaaaaaaaaaaaaaaaaaaaaaaaaaaaaaaaaaaaaaaaaaaaaaa........o.......oaaaaaaaaaaaaaaaaa.........o..o........oo........o..o... $aaaa",
"aaaaaaaaaaaaaaaaaaaaaaaaaaaaaaaaaaaaaaaaaaaaaaaaaa..........o......aaaaaaaaaaaaaaaaa.......o..........o......o........o....@aaaa",
"aaaaaaaaaaaaaaaaaaaaaaaaaaaaaaaaaaaaaaaaaaaaaaaaaa.....o...........aaaaaaaaaaaaaaaaa ...........................o..........$aaaa",
"aaaaaaaaaaaaaaaaaaaaaaaaaaaaaaaaaaaaaaaaaaaaaaaaaa........o...o....aaaaaaaaaaaaaaaaa...........oX..X.......oo..............@aaaa",
"aaaaaaaaaaaaaaaaaaaaaaaaaaaaaaaaaaaaaaaaaaaaaaaaa-..............o..aaaaaaaaaaaaaaaaa................................X.o....%aaaa",
"aaaa: ........ ... .. ........ ... .. ........ .................o..aaaaaaaaaaaaaaaaa ....XX.o.....................o........$aaaa",
"aaaa,.....................................................o.o......aaaaaaaaaaaaaaaaa...............X....o......o.......o.o.@aaaa",
"aaaa,....................o...o...........o...o..........o.....o....aaaaaaaaaaaaaaaaa.........o..X..o.............oo........$aaaa",
"aaaa,......o.......................................................aaaaaaaaaaaaaaaaa...................................... $aaaa",
"aaaa,.......o..o.oo.......o......oo.......o......o.o...o..........oaaaaaaaaaaaaaaaaa ................................o...X.@aaaa",
"aaaa, ..o......................o...............o...........o.......aaaaaaaaaaaaaaaaaoOO+OOOOOOO+OO+O+OOO++.oo......X.......$aaaa",
"aaaa,.......o.........o...............o...............o......o.....aaaaaaaaaaaaaaaaaaaaaaaaaaaaaaaaaaaaaaao......o.........@aaaa",
"aaaa,.............o........o......o........o..............o......X.aaaaaaaaaaaaaaaaaaaaaaaaaaaaaaaaaaaaaaa+............o.o.@aaaa",
"aaaa,..........o.......o.....o.........o.....o....o...o........o...aaaaaaaaaaaaaaaaaaaaaaaaaaaaaaaaaaaaaaaO....o...........%aaaa",
"aaaa,............................................................o.aaaaaaaaaaaaaaa46333333333667aaaaaaaaaaO.........o......@aaaa",
"aaaa,.......o............o....o..........o....o..........o.........aaaaaaaaaaaaq43400aaaaaaa006416aaaaaaaaO.......o.X..X...@aaaa",
"aaaa:............o.o.............o.o.............oo........o.......aaaaaaaaaaa4<6aaaaaaaaaaaaaaaa733qaaaaa+..o.............@aaaa",
"aaaa, ...............o.....o.........o.....o.........o.............aaaaaaaaaw37aaaaaaq33<36taaaaaaaq13aaaa+.....o..........@aaaa",
"aaaa,.........o..............o...............o...............o...o.aaaaaaaat<0aaaa633360t0433346aaaaa03raaO.........X......%aaaa",
"aaaa,...........o....o........X............o..o............o..o....aaaaaaaa17aaa6<6taaaaaaaaaa7533eaaa7waaO.......o........@aaaa",
"aaaa,.o....oo.............o............o...............o...........aaaaaaa30aaa36aaaaaaaaaaaaaaaa714aaaaaaO..........o..o..$aaaa",
"aaaa,...X.....o.............o....oo..............oo..............o.aaaaaa93aaa<7aaaa6463336450aaaaa74aaaaao....oo..........$aaaa",
"aaaa, ...............o%aaaaaaaaaaaaaaaaaaaaaaaaaaaaaaaaaaaaaaaaaaaaaaaaaa1taa45aaa61667aaa660334qaaaaaaaaa+................$aaaa",
"aaaa, .............o.oaaaaaaaaaaaaaaaaaaaaaaaaaaaaaaaaaaaaaaaaaaaaaaaaaaq3aau1aaa34aaaaaaaaaaaa734aaaaaaaa+...........o....$aaaa",
"aaaa,...o.....X......oaaaaaaaaaaaaaaaaaaaaaaaaaaaaaaaaaaaaaaaaaaaaaaaaaa60aa4taa46aaaaaaaaaaaaaaaaaaaaaaaa+.........o..... $aaaa",
"aaaa:................oaaaaaaaaaaaaaaaaaaaaaaaaaaaaaaaaaaaaaaaaaaaaaaaaaa37aa1aaa1aaa0334433346taaaaaaaaaaaO....o...........@aaaa",
"aaaa,.o....oo...o....oaaaaaaaaaaaaaaaaaaaaaaaaaaaaaaaaaaaaaaaaaaaaaaaaaa3aaa3aaq4aa73qaaaaaaa06aaaaaaaaaaaO..o....o........$aaaa",
"aaaa,................oaaaaaaaaaaaaaaaaaaaaaaaaaaaaaaaaaaaaaaaaaaaaaaaaaa3aa66aa60aa3aaaaaaaaaaaaaaaaaaaaaaO...........X....@aaaa",
"aaaa,......Xo..o.....oaaaaaaaaaaaaaaaaaaaaaaaaaaaaaaaaaaaaaaaaaaaaaaaaaa3aa66aa4taa3aaaaaaaaaaaaaaaaaaaaaaO.o...o..........$aaaa",
"aaaa, ...............oaaaaaaaaaaaaaaaaaaaaaaaaaaaaaaaaaaaaaaaaaaaaaaaaaa3aaa4aaq7aa66aaaaaaaaaaaaaaaaaaaaaO.........X...o..@aaaa",
"aaaa,...o.........o..oaaaaaaaaaaaaaaaaaaaaaaaaaaaaaaaaaaaaaaaaaaaaaaaaaa40aa1aaq3aaa144444360aaaaaaaaaaaaaO.......o...X....$aaaa",
"aaaa,.........X....o.oaaaaaaaaaaaaaaaaaaaaaaaaaaaaaaaaaaaaaaaaaaaaaaaaaa4qaa3qaa1qaaa6343qt63339aaaaaaaaaaO...o.......X....$aaaa",
"aaaa:.....o.o.......Xoaaaaaaaaaaaaaaaaaaaaaaaaaaaaaaaaaaaaaaaaaaaaaaaaaaq6aa04aat1aaaaaaaaaaaaq417aaaaaaaaO........o.......$aaaa",
"aaaa: ........X..X...oaaaaaaaaaaaaaaaaaaaaaaaaaaaaaaaaaaaaaaaaaaaaaaaaaaa1aaa<aaa637aaaaaaaaaaaaq33aaaaaaaO................@aaaa",
"aaaa,....o...........oaaaaaaaaaaaaaaaaaaaaaaaaaaaaaaaaaaaaaaaaaaaaaaaaaaa4qaa03aaaa4433333333qaaaa33aaaaaaO................$aaaa",
"aaaa:..............o.oaaaaaaaaaaaaaaaaaaaaaaaaaaaaaaaaaaaaaaaaaaaaaaaaaaau<aaa6<aaaaaaaaaaa7731taaa34aaaaaO.....o......o...@aaaa",
"aaaa,................oaaaaaaaaaaaaaaaaaaaaaaaaaaaaaaaaaaaaaaaaaaaaaaaaaaaa64aaa730aaaaaaaaaaaa036aaa1qaaaaO...o............%aaaa",
"aaaa, ...............Xaaaaaaaaaaaaaaaaaaaaaaaaaaaaaaaaaaaaaaaaaaaaaaaaaaaaa33aaae336636660aaaaaa<qaau<aaaaO................@aaaa",
"aaaa:..X.....o..o....oaaaaaaaaaaaaaaaaa;;;:;;:;;;;;;;:;:aaaaaaaaaaaaaaaaaaaa<0aaaaa6676666334aaaa<paa3raaaO.......o.o......%aaaa",
"aaaa,..........oo....oaaaaaaaaaaaaaaaa& .. ........ ....aaaaaaaaaaaaaaaaaaaaa31taaaaaaaaaaaa7<7aa64aai2aaaO.........o......$aaaa",
"aaaa:.....o..........oaaaaaaaaaaaaaaaa&................oaaaaaaaaaaaaaaaaaaaaaa6347aaaaaaaaaaat<aaa1aaa1aaaO...o............$aaaa",
"aaaa,.......o........oaaaaaaaaaaaaaaaa-...............ooaaaaaaaaaaaaaaaaaaaaaaaa64341<44467aaa76aa60aa40aaO................@aaaa",
"aaaa:...........X..X.Xaaaaaaaaaaaaaaaa*................oaaaaaaaaaaaaaaaaaaaaaaaaaaa6ewq00743aaa3aat3aa4taao..o..o......o...$aaaa",
"aaaa, ..o..........o.oaaaaaaaaaaaaaaaa& ........o......oaaaaaaaaaaaaaaaaaaaaaaaaaaaaaaaaaaa47aa3aa63aa06aaO................@aaaa",
"aaaa,.......o........oaaaaaaaaaaaaaaaa-.....X.X.......ooaaaaaaaaaaaaaaaaaaaaaaaaaaaaaaaaaaa73aa3aaa3aaq4aaO..........o.....$aaaa",
"aaaa:................Xaaaaaaaaaaaaaaaa&.............o..oaaaaaaaaaaaaaaaaaaaaaaaaaaaaaaaaaaa36aa3aa73aa08aao......oo........@aaaa",
"aaaa:.....o....oo....oaaaaaaaaaaaaaaaa& .....o.....o...oaaaaaaaaaaaaaaaaaaaaaaaa043763466034aaa3aai3aa4yaaO................@aaaa",
"aaaa,......o.o..o....oaaaaaaaaaaaaaaaa-...............ooaaaaaaaaaaaaaaaaaaaaaaaaaa76443334qaaa64aa77aa4yaaO..o.............$aaaa",
"aaaa, ...............oaaaaaaaaaaaaaaaa-.o......o.......oaaaaaaaaaaaaaaaaaaaaaa6aaaaaaaaaaaaaat<aaa<aaa<aaaO.......o...o... $aaaa",
"aaaa,................oaaaaaaaaaaaaaaaa&.........o...o..oaaaaaaaaaaaaaaaaaaaaaa336aaaaaaaaaaa6#paaq3aaq4aaa+................@aaaa",
"aaaa,....o...o..X..X.Xaaaaaaaaaaaaaaaa-...o............oaaaaaaaaaaaaaaaaaaaaaaaa6344613416436aaap#aaa3taaa+....o......o....$aaaa",
"aaaa,............o...oaaaaaaaaaaaaaaaa-................oaaaaaaaaaaaaaaaaaaa16aaaaaa047eq74qaaaat<taa01aaaa+........o.......@aaaa",
"aaaa,......o.........oaaaaaaaaaaaaaaaa* .........o.o...oaaaaaaaaaaaaaaaaaaaa616aaaaaaaaaaaaaaa7<taaa<paaaaO.........o......%aaaa",
"aaaa: ........o..o...oaaaaaaaaaaaaaaaa-......o.........oaaaaaaaaaaaaaaaa36aaaa63346aaaaaaaa6613aaaa36aaaaao.............o..%aaaa",
"aaaa,.....o..........oaaaaaaaaaaaaaaaa-................oaaaaaaaaaaaaaaaaw<7aaaaa0743333333346aaaaa36aaaaaaO.....o..........@aaaa",
"aaaa:................oaaaaaaaaaaaaaaaa&.......o.o...o..oaaaaaaaaaaaaaaaaaa436aaaaaaaaaaaaaaaaaaaq10aaaaaaa+............o...$aaaa",
"aaaa,...o......o.....oaaaaaaaaaaaaaaaa& X..o...........oaaaaaaaaaaaaaaaaaaa6444qaaaaaaaaaaaaaa013taaaaaaaa+...o........... $aaaa",
"aaaa, ............o..oaaaaaaaaaaaaaaaa&................oaaaaaaaaaaaaaaaaaaaaaa6532666aaaa9q7334waaaaaaaaaa+.........o......@aaaa",
"aaaa:........o.......oaaaaaaaaaaaaaaaa&.....o.......o..oaaaaaaaaaaaaaaaaaaaaaaaaa895442244279aaaaaaaaaaaaao........o.......$aaaa",
"aaaa,...........X..X.oaaaaaaaaaaaaaaaa-.o......o..o....oaaaaaaaaaaaaaaaaaaaaaaaaaaaaaaaaaaaaaaaaaaaaaaaaaaO...o..o.........@aaaa",
"aaaa: ......o........oaaaaaaaaaaaaaaaa* ...............Oaaaaaaaaaaaaaaaaaaaaaaaaaaaaaaaaaaaaaaaaaaaaaaaaaa+...........X.o..$aaaa",
"aaaa:................oaaaaaaaaaaaaaaaa-................o+oOooooOOOooooOOoOOOOoOooOooooOoooO++OOoOOO+OOOOO+....o.....X.X....%aaaa",
"aaaa:................oaaaaaaaaaaaaaaaa-....o....o..........................................................................@aaaa",
"aaaa,.....o....oX..o.oaaaaaaaaaaaaaaaa- ...o.o........o.........o......o....o......o...................o...................$aaaa",
"aaaa:................oaaaaaaaaaaaaaaaa&...................o................o..............................o.....o..........$aaaa",
"aaaa:........o..o....oaaaaaaaaaaaaaaaa&.............o.........o..........................o..o.o.....X........o.............$aaaa",
"aaaa:...o............oaaaaaaaaaaaaaaaa&.o......o..o.................o....o.....o......o...............X............o.......$aaaa",
"aaaa:...X..XX..X.....oaaaaaaaaaaaaaaaa&......................X....o.......o..............o..........o...o......o.o......o. $aaaa",
"aaaa:.............o..oaaaaaaaaaaaaaaaa&...............o..X..........o...o.......X..XX...........X..........................$aaaa",
"aaaa,................oaaaaaaaaaaaaaaaa- ....o...o.o......o.X...X..............o.......o..o...o.....o.......................$aaaa",
"aaaa:...X...X..X.....oaaaaaaaaaaaaaaaa-..X...................X..o.................X...................o.....o....o..o......$aaaa",
"aaaa:.....X..X..o....oaaaaaaaaaaaaaaaa&..X............................o.....o...................o.........o.X..X....o......$aaaa",
"aaaa, ............o..oaaaaaaaaaaaaaaaa- ...o..o...o...o.....X..X........o.......X..X.........oo......o.....................$aaaa",
"aaaa,...o..X.........oaaaaaaaaaaaaaaaa&.....o.........o...o.........o.....o....o..........o........o...................o...@aaaa",
"aaaa:.............X..oaaaaaaaaaaaaaaaa- ..........................o..............X..X...................o...X....o.........$aaaa",
"aaaa:................oaaaaaaaaaaaaaaaa&..........o.....X...................................................X...............@aaaa",
"aaaa,................oaaaaaaaaaaaaaaaa&......................X.................X............X....o.........................@aaaa",
"aaaa:  . ..... ..  ...aaaaaaaaaaaaaaaa& . ...  ... . ..  .... ...  .... ...  ..... .. ... ... . .. .. ...  .. .  . ....  . +aaaa",
"aaaaa&----------------aaaaaaaaaaaaaaaaa;---;;-;;----;-;----;-----------;----------------------------====------------------&,aaaa",
"aaaaaaaaaaaaaaaaaaaaaaaaaaaaaaaaaaaaaaaaaaaaaaaaaaaaaaaaaaaaaaaaaaaaaaaaaaaaaaaaaaaaaaaaaaaaaaaaaaaaaaaaaaaaaaaaaaaaaaaaaaaaaaaa",
"aaaaaaaaaaaaaaaaaaaaaaaaaaaaaaaaaaaaaaaaaaaaaaaaaaaaaaaaaaaaaaaaaaaaaaaaaaaaaaaaaaaaaaaaaaaaaaaaaaaaaaaaaaaaaaaaaaaaaaaaaaaaaaaa",
"aaaaaaaaaaaaaaaaaaaaaaaaaaaaaaaaaaaaaaaaaaaaaaaaaaaaaaaaaaaaaaaaaaaaaaaaaaaaaaaaaaaaaaaaaaaaaaaaaaaaaaaaaaaaaaaaaaaaaaaaaaaaaaaa",
"aaaaaaaaaaaaaaaaaaaaaaaaaaaaaaaaaaaaaaaaaaaaaaaaaaaaaaaaaaaaaaaaaaaaaaaaaaaaaaaaaaaaaaaaaaaaaaaaaaaaaaaaaaaaaaaaaaaaaaaaaaaaaaaa"
};
