/* XPM */
static char *_40ec742bed049e2d073b34bab126893[] = {
/* columns rows colors chars-per-pixel */
"16 16 58 1 ",
"  c #7A0A00",
". c #790D00",
"X c #7D0F00",
"o c #751100",
"O c #771200",
"+ c #761301",
"@ c #771301",
"# c #751400",
"$ c #771401",
"% c #761501",
"& c #771501",
"* c #771502",
"= c #761602",
"- c #771602",
"; c #761603",
": c #771603",
"> c #761703",
", c #771703",
"< c #791201",
"1 c #781301",
"2 c #781703",
"3 c #7B1604",
"4 c #771804",
"5 c #781804",
"6 c #781805",
"7 c #791805",
"8 c #781905",
"9 c #791B07",
"0 c #7C1806",
"q c #7E1807",
"w c #7B1C08",
"e c #7B1D09",
"r c #781E08",
"t c #7A1F09",
"y c #7C1D0A",
"u c #7D1D0B",
"i c #7C1E0A",
"p c #7C1F0B",
"a c #7D1F0B",
"s c #732309",
"d c #772009",
"f c #7A230D",
"g c #555A1D",
"h c #65501F",
"j c #821C0D",
"k c #851E10",
"l c #802311",
"z c #178517",
"x c #188518",
"c c #198619",
"v c #1A861A",
"b c #1B871B",
"n c #138E1B",
"m c #138F1B",
"M c #14901C",
"N c #1A9222",
"B c ForestGreen",
"V c None",
/* pixels */
"VVVVVVVVVVVVVVVV",
"VbbzNVV84444444V",
"VbzzmVV,,,,,,,,V",
"VbzBVVV,pVVVVVVV",
"VMmVVVV,VVVVVVVV",
"VVVVVVV,VVVppppV",
"VVVVVVl,VVk .,,V",
"V8,,,,,<VVVgh8*V",
"V8*pVVVVVVVVVt,V",
"V8*VVVVVVVVVVq,V",
"V88VVVtVVVVVVtOV",
"V8*VVtOVVVVVVdOV",
"V*8VVpOVVVVVV0,V",
"V8*VVp,3X3sfj8,V",
"V5*VVp,,,,<OO,,V",
"VVVVVVVVVVVVVVVV"
};
