/* XPM */
static char *_17b9445ea6f449384d3c1ab45428ec7[] = {
/* columns rows colors chars-per-pixel */
"32 32 116 2 ",
"   c #741200",
".  c #741300",
"X  c #751300",
"o  c #761300",
"O  c #771300",
"+  c #771301",
"@  c #741400",
"#  c #751400",
"$  c #751401",
"%  c #751501",
"&  c #761401",
"*  c #771401",
"=  c #761501",
"-  c #771501",
";  c #761601",
":  c #761502",
">  c #771502",
",  c #761602",
"<  c #771602",
"1  c #761702",
"2  c #771703",
"3  c #791301",
"4  c #7C1001",
"5  c #7F1505",
"6  c #7C1705",
"7  c #7F1706",
"8  c #7F1707",
"9  c #781904",
"0  c #781905",
"q  c #791905",
"w  c #781A05",
"e  c #791A05",
"r  c #791906",
"t  c #781A06",
"y  c #791A06",
"u  c #791A07",
"i  c #7A1A06",
"p  c #7A1A07",
"a  c #7A1B07",
"s  c #7B1B07",
"d  c #7F1807",
"f  c #7A1B08",
"g  c #7F1A08",
"h  c #7A1C08",
"j  c #7B1C08",
"k  c #7B1D08",
"l  c #7A1C09",
"z  c #7B1C09",
"x  c #7B1D09",
"c  c #7D1C08",
"v  c #7D1C09",
"b  c #7C1E0A",
"n  c #7C1F0A",
"m  c #7C1E0B",
"M  c #7D1F0B",
"N  c #7C1F0C",
"B  c #7C1F0D",
"V  c #76250C",
"C  c #77260C",
"Z  c #7A200A",
"A  c #7B200A",
"S  c #7C200C",
"D  c #7C200D",
"F  c #7D200D",
"G  c #7D210D",
"H  c #7D210E",
"J  c #7F220E",
"K  c #7B240D",
"L  c #7F240F",
"P  c #71290C",
"I  c #7C2912",
"U  c #811305",
"Y  c #801A09",
"T  c #801B0A",
"R  c #811B0B",
"E  c #811D0C",
"W  c #80200E",
"Q  c #80240F",
"!  c #802410",
"~  c #802510",
"^  c #812510",
"/  c #802511",
"(  c #812511",
")  c #812611",
"_  c #802512",
"`  c #812612",
"'  c #812613",
"]  c #812713",
"[  c #822613",
"{  c #822713",
"}  c #882517",
"|  c #832914",
" . c #832915",
".. c #832916",
"X. c #842915",
"o. c #852917",
"O. c #842A16",
"+. c #8B2619",
"@. c #862E1C",
"#. c #872E1C",
"$. c #862F1C",
"%. c #862F1D",
"&. c #872F1D",
"*. c #883120",
"=. c #168416",
"-. c #178417",
";. c #178517",
":. c #188518",
">. c #1A861A",
",. c #1B861B",
"<. c #1C881C",
"1. c #1E891E",
"2. c #1F8A1F",
"3. c #238D23",
"4. c #258E25",
"5. c None",
/* pixels */
"5.5.5.5.5.5.5.5.5.5.5.5.5.5.5.5.5.5.5.5.5.5.5.5.5.5.5.5.5.5.5.5.",
"5.1.,.,.,.,.,.,.5.5.5.5.*., y y y t y y y y y y t y y y y t L 5.",
"5.,.=.=.=.=.=.,.5.5.5.5.&.  , < < , , , < < < < , , , < , , y 5.",
"5.1.=.,.,.,.=.=.5.5.5.5.&., , , 2 2 2 2 2 2 2 2 2 2 2 2 , , l 5.",
"5.<.=.,.=.;.=.,.5.5.5.5.#.  2 2 , , , , , , < < , , , , , , y 5.",
"5.<.=.=.=.2.5.3.5.5.5.5.#., 2 < l { _ _ _ Q Q _ _ Q _ _ _ Q 5.5.",
"5.1.=.,.=.5.5.5.5.5.5.5.#.@ 2 < y 5.5.5.5.5.5.5.5.5.5.5.5.5.5.5.",
"5.<.=.=.,.3.5.5.5.5.5.5.#.  2 2 y 5.5.5.5.5.5.5.5.5.5.5.5.5.5.5.",
"5.5.5.5.5.5.5.5.5.5.5.5.#.. , 2 y 5.5.5.5.5.5.5.5.5.5.5.5.5.5.5.",
"5.5.5.5.5.5.5.5.5.5.5.5.#.. 2 2 y 5.5.5.5._ X.X.X.X...X.X...5.5.",
"5.5.5.5.5.5.5.5.5.5.5.5.#.. 2 2 y 5.5.5.5., . , , , , , , , a 5.",
"5.5.5.5.5.5.5.5.5.5.5.5.#., 2 2 y 5.5.5.5.< < < , 2 , , , , l 5.",
"5...L L _ _ L _ _ _ _ _ s , 2 2 y 5.5.5.5.. < . , , < , , , x 5.",
"5.y   , , , , , , , , , , < 2 2 y 5.5.5.5.L L V E E y , , , x 5.",
"5.f , y , < y , , , < 2 2 2 2 2 y 5.5.5.5.5.5.5.5.5.Y , < , x 5.",
"5.f , , , < , , , , , , , , , , 4 5.5.5.5.5.5.5.5.5.L . y , x 5.",
"5.f , 2 , s L x x x S E x x x x 5.5.5.5.5.5.5.5.5.5.A , 2 , x 5.",
"5.f , 2 , ! 5.5.5.5.5.5.5.5.5.5.5.5.5.5.5.5.5.5.5.5.5 , 2 , x 5.",
"5.f , < , ! 5.5.5.5.5.5.5.5.5.5.5.5.5.5.5.5.5.5.5.5.Y , < , x 5.",
"5.f , < , Q 5.5.5.5.5.5.5.5.5.5.5.5.5.5.5.5.5.5.5.5.5 , 2 , x 5.",
"5.f , 2 , Q 5.5.5.5.5.5.5.5.5.5.5.5.5.5.5.5.5.5.5.5.Y , 2 , x 5.",
"5.f , 2 < Q 5.5.5..., < < y 5.5.5.5.5.5.5.5.5.5.5.5.x < 2 , x 5.",
"5.y , 2 < Q 5.5.5._ , < , l 5.5.5.5.5.5.5.5.5.5.5.5.C . < , x 5.",
"5.f , 2 < _ 5.5.5._ , < < y 5.5.5.5.5.5.5.5.5.5.5.5.Y , y , x 5.",
"5.l , 2 , Q 5.5.5.{ < < , y 5.5.5.5.5.5.5.5.5.5.5.5.Y < < , z 5.",
"5.y , 2 , _ 5.5.5.{ , < , x 5.5.5.5.5.5.5.5.5.5.5.5.z , < , x 5.",
"5.y < 2 , Q 5.5.5.{ , < < y x z l s U 5 A P I } +.X.z < < , x 5.",
"5.s , 2 , Q 5.5.5._ , < < 2 , < < < , , , 3 3 . , . < 2 2 , x 5.",
"5.y , , , Q 5.5.5._ < < < < , , < < < < , , , < < , 2 , 2 < x 5.",
"5.y . , , Q 5.5.5._ , , , , , , , , , , , , , , , , , , , . f 5.",
"5._ L B L 5.5.5.5.5.m L L B L B B L L x L B B L L B L B B L 5.5.",
"5.5.5.5.5.5.5.5.5.5.5.5.5.5.5.5.5.5.5.5.5.5.5.5.5.5.5.5.5.5.5.5."
};
